<?xml version="1.0" encoding="utf-8" standalone="no"?>
<!DOCTYPE svg PUBLIC "-//W3C//DTD SVG 1.1//EN"
  "http://www.w3.org/Graphics/SVG/1.1/DTD/svg11.dtd">
<!-- Created with matplotlib (https://matplotlib.org/) -->
<svg height="720pt" version="1.1" viewBox="0 0 720 720" width="720pt" xmlns="http://www.w3.org/2000/svg" xmlns:xlink="http://www.w3.org/1999/xlink">
 <metadata>
  <rdf:RDF xmlns:cc="http://creativecommons.org/ns#" xmlns:dc="http://purl.org/dc/elements/1.1/" xmlns:rdf="http://www.w3.org/1999/02/22-rdf-syntax-ns#">
   <cc:Work>
    <dc:type rdf:resource="http://purl.org/dc/dcmitype/StillImage"/>
    <dc:date>2020-09-26T14:14:25.057549</dc:date>
    <dc:format>image/svg+xml</dc:format>
    <dc:creator>
     <cc:Agent>
      <dc:title>Matplotlib v3.3.2, https://matplotlib.org/</dc:title>
     </cc:Agent>
    </dc:creator>
   </cc:Work>
  </rdf:RDF>
 </metadata>
 <defs>
  <style type="text/css">*{stroke-linecap:butt;stroke-linejoin:round;}</style>
 </defs>
 <g id="figure_1">
  <g id="patch_1">
   <path d="M 0 720 
L 720 720 
L 720 0 
L 0 0 
z
" style="fill:#23272e;"/>
  </g>
  <g id="axes_1">
   <g id="line2d_1">
    <path clip-path="url(#p932c77fc74)" d="M -1 571.499975 
L 107.175676 571.397914 
L 126.725225 571.162203 
L 139.292793 570.805846 
L 149.067568 570.316337 
L 157.445946 569.664012 
L 164.427928 568.887345 
L 170.013514 568.064814 
L 175.599099 567.017421 
L 181.184685 565.694827 
L 185.373874 564.487527 
L 189.563063 563.065169 
L 193.752252 561.397458 
L 197.941441 559.451471 
L 202.130631 557.19175 
L 206.31982 554.580477 
L 209.112613 552.624683 
L 211.905405 550.482659 
L 214.698198 548.141839 
L 217.490991 545.589432 
L 220.283784 542.812507 
L 223.076577 539.798074 
L 225.869369 536.533185 
L 228.662162 533.005039 
L 231.454955 529.2011 
L 234.247748 525.109222 
L 237.040541 520.717788 
L 239.833333 516.015848 
L 242.626126 510.99327 
L 245.418919 505.6409 
L 248.211712 499.950717 
L 252.400901 490.767739 
L 256.59009 480.793573 
L 260.779279 470.020548 
L 264.968468 458.450855 
L 269.157658 446.097683 
L 273.346847 432.98623 
L 277.536036 419.154562 
L 281.725225 404.654281 
L 287.310811 384.395861 
L 292.896396 363.261392 
L 299.878378 335.978068 
L 316.635135 269.933657 
L 322.220721 248.958373 
L 326.40991 233.957409 
L 330.599099 219.761021 
L 334.788288 206.526334 
L 337.581081 198.312336 
L 340.373874 190.635573 
L 343.166667 183.536448 
L 345.959459 177.052848 
L 348.752252 171.219801 
L 351.545045 166.069169 
L 354.337838 161.629352 
L 357.130631 157.925028 
L 358.527027 156.355314 
L 359.923423 154.976928 
L 361.31982 153.791812 
L 362.716216 152.80164 
L 364.112613 152.007813 
L 365.509009 151.411455 
L 366.905405 151.013412 
L 368.301802 150.814249 
L 369.698198 150.814249 
L 371.094595 151.013412 
L 372.490991 151.411455 
L 373.887387 152.007813 
L 375.283784 152.80164 
L 376.68018 153.791812 
L 378.076577 154.976928 
L 379.472973 156.355314 
L 380.869369 157.925028 
L 382.265766 159.683862 
L 385.058559 163.758776 
L 387.851351 168.557324 
L 390.644144 174.052936 
L 393.436937 180.215447 
L 396.22973 187.011375 
L 399.022523 194.40422 
L 401.815315 202.354795 
L 404.608108 210.821568 
L 408.797297 224.393953 
L 412.986486 238.876217 
L 417.175676 254.109789 
L 422.761261 275.311625 
L 431.13964 308.255017 
L 443.707207 357.867864 
L 450.689189 384.395861 
L 456.274775 404.654281 
L 460.463964 419.154562 
L 464.653153 432.98623 
L 468.842342 446.097683 
L 473.031532 458.450855 
L 477.220721 470.020548 
L 481.40991 480.793573 
L 485.599099 490.767739 
L 489.788288 499.950717 
L 493.977477 508.358839 
L 496.77027 513.545235 
L 499.563063 518.406285 
L 502.355856 522.951652 
L 505.148649 527.191893 
L 507.941441 531.138313 
L 510.734234 534.802811 
L 513.527027 538.197742 
L 516.31982 541.335791 
L 519.112613 544.229846 
L 521.905405 546.892889 
L 524.698198 549.337894 
L 527.490991 551.57773 
L 531.68018 554.580477 
L 535.869369 557.19175 
L 540.058559 559.451471 
L 544.247748 561.397458 
L 548.436937 563.065169 
L 552.626126 564.487527 
L 556.815315 565.694827 
L 561.004505 566.71471 
L 566.59009 567.825881 
L 572.175676 568.700325 
L 579.157658 569.527925 
L 586.13964 570.127229 
L 594.518018 570.624974 
L 605.689189 571.032551 
L 619.653153 571.295418 
L 640.599099 571.445799 
L 688.076577 571.498201 
L 721 571.499877 
L 721 571.499877 
" style="fill:none;stroke:#5e81ac;stroke-linecap:square;stroke-width:100;"/>
   </g>
  </g>
 </g>
 <defs>
  <clipPath id="p932c77fc74">
   <rect height="554.4" width="558" x="90" y="86.4"/>
  </clipPath>
 </defs>
</svg>
