<?xml version="1.0" encoding="utf-8" standalone="no"?>
<!DOCTYPE svg PUBLIC "-//W3C//DTD SVG 1.1//EN"
  "http://www.w3.org/Graphics/SVG/1.1/DTD/svg11.dtd">
<!-- Created with matplotlib (https://matplotlib.org/) -->
<svg height="568.8pt" version="1.1" viewBox="0 0 572.4 568.8" width="572.4pt" xmlns="http://www.w3.org/2000/svg" xmlns:xlink="http://www.w3.org/1999/xlink">
 <metadata>
  <rdf:RDF xmlns:cc="http://creativecommons.org/ns#" xmlns:dc="http://purl.org/dc/elements/1.1/" xmlns:rdf="http://www.w3.org/1999/02/22-rdf-syntax-ns#">
   <cc:Work>
    <dc:type rdf:resource="http://purl.org/dc/dcmitype/StillImage"/>
    <dc:date>2020-09-26T14:21:51.490783</dc:date>
    <dc:format>image/svg+xml</dc:format>
    <dc:creator>
     <cc:Agent>
      <dc:title>Matplotlib v3.3.2, https://matplotlib.org/</dc:title>
     </cc:Agent>
    </dc:creator>
   </cc:Work>
  </rdf:RDF>
 </metadata>
 <defs>
  <style type="text/css">*{stroke-linecap:butt;stroke-linejoin:round;}</style>
 </defs>
 <g id="figure_1">
  <g id="patch_1">
   <path d="M 0 568.8 
L 572.4 568.8 
L 572.4 0 
L 0 0 
z
" style="fill:none;"/>
  </g>
  <g id="axes_1">
   <g id="line2d_1">
    <path clip-path="url(#p353c77755a)" d="M -1 492.281183 
L 32.754054 492.127564 
L 49.510811 491.832551 
L 60.681982 491.424974 
L 69.06036 490.927229 
L 76.042342 490.327925 
L 83.024324 489.500325 
L 88.60991 488.625881 
L 94.195495 487.51471 
L 98.384685 486.494827 
L 102.573874 485.287527 
L 106.763063 483.865169 
L 110.952252 482.197458 
L 115.141441 480.251471 
L 119.330631 477.99175 
L 123.51982 475.380477 
L 126.312613 473.424683 
L 129.105405 471.282659 
L 131.898198 468.941839 
L 134.690991 466.389432 
L 137.483784 463.612507 
L 140.276577 460.598074 
L 143.069369 457.333185 
L 145.862162 453.805039 
L 148.654955 450.0011 
L 151.447748 445.909222 
L 154.240541 441.517788 
L 157.033333 436.815848 
L 159.826126 431.79327 
L 162.618919 426.4409 
L 165.411712 420.750717 
L 169.600901 411.567739 
L 173.79009 401.593573 
L 177.979279 390.820548 
L 182.168468 379.250855 
L 186.357658 366.897683 
L 190.546847 353.78623 
L 194.736036 339.954562 
L 198.925225 325.454281 
L 204.510811 305.195861 
L 210.096396 284.061392 
L 217.078378 256.778068 
L 233.835135 190.733657 
L 239.420721 169.758373 
L 243.60991 154.757409 
L 247.799099 140.561021 
L 251.988288 127.326334 
L 254.781081 119.112336 
L 257.573874 111.435573 
L 260.366667 104.336448 
L 263.159459 97.852848 
L 265.952252 92.019801 
L 268.745045 86.869169 
L 271.537838 82.429352 
L 274.330631 78.725028 
L 275.727027 77.155314 
L 277.123423 75.776928 
L 278.51982 74.591812 
L 279.916216 73.60164 
L 281.312613 72.807813 
L 282.709009 72.211455 
L 284.105405 71.813412 
L 285.501802 71.614249 
L 286.898198 71.614249 
L 288.294595 71.813412 
L 289.690991 72.211455 
L 291.087387 72.807813 
L 292.483784 73.60164 
L 293.88018 74.591812 
L 295.276577 75.776928 
L 296.672973 77.155314 
L 298.069369 78.725028 
L 299.465766 80.483862 
L 302.258559 84.558776 
L 305.051351 89.357324 
L 307.844144 94.852936 
L 310.636937 101.015447 
L 313.42973 107.811375 
L 316.222523 115.20422 
L 319.015315 123.154795 
L 321.808108 131.621568 
L 325.997297 145.193953 
L 330.186486 159.676217 
L 334.375676 174.909789 
L 339.961261 196.111625 
L 348.33964 229.055017 
L 360.907207 278.667864 
L 367.889189 305.195861 
L 373.474775 325.454281 
L 377.663964 339.954562 
L 381.853153 353.78623 
L 386.042342 366.897683 
L 390.231532 379.250855 
L 394.420721 390.820548 
L 398.60991 401.593573 
L 402.799099 411.567739 
L 406.988288 420.750717 
L 411.177477 429.158839 
L 413.97027 434.345235 
L 416.763063 439.206285 
L 419.555856 443.751652 
L 422.348649 447.991893 
L 425.141441 451.938313 
L 427.934234 455.602811 
L 430.727027 458.997742 
L 433.51982 462.135791 
L 436.312613 465.029846 
L 439.105405 467.692889 
L 441.898198 470.137894 
L 444.690991 472.37773 
L 448.88018 475.380477 
L 453.069369 477.99175 
L 457.258559 480.251471 
L 461.447748 482.197458 
L 465.636937 483.865169 
L 469.826126 485.287527 
L 474.015315 486.494827 
L 478.204505 487.51471 
L 483.79009 488.625881 
L 489.375676 489.500325 
L 496.357658 490.327925 
L 503.33964 490.927229 
L 511.718018 491.424974 
L 522.889189 491.832551 
L 536.853153 492.095418 
L 557.799099 492.245799 
L 573.4 492.281183 
L 573.4 492.281183 
" style="fill:none;stroke:#5e81ac;stroke-linecap:square;stroke-width:100;"/>
   </g>
  </g>
 </g>
 <defs>
  <clipPath id="p353c77755a">
   <rect height="554.4" width="558" x="7.2" y="7.2"/>
  </clipPath>
 </defs>
</svg>
