<?xml version="1.0" encoding="utf-8" standalone="no"?>
<!DOCTYPE svg PUBLIC "-//W3C//DTD SVG 1.1//EN"
  "http://www.w3.org/Graphics/SVG/1.1/DTD/svg11.dtd">
<!-- Created with matplotlib (https://matplotlib.org/) -->
<svg height="568.8pt" version="1.1" viewBox="0 0 572.4 568.8" width="572.4pt" xmlns="http://www.w3.org/2000/svg" xmlns:xlink="http://www.w3.org/1999/xlink">
 <metadata>
  <rdf:RDF xmlns:cc="http://creativecommons.org/ns#" xmlns:dc="http://purl.org/dc/elements/1.1/" xmlns:rdf="http://www.w3.org/1999/02/22-rdf-syntax-ns#">
   <cc:Work>
    <dc:type rdf:resource="http://purl.org/dc/dcmitype/StillImage"/>
    <dc:date>2020-09-26T22:38:35.196305</dc:date>
    <dc:format>image/svg+xml</dc:format>
    <dc:creator>
     <cc:Agent>
      <dc:title>Matplotlib v3.3.2, https://matplotlib.org/</dc:title>
     </cc:Agent>
    </dc:creator>
   </cc:Work>
  </rdf:RDF>
 </metadata>
 <defs>
  <style type="text/css">*{stroke-linecap:butt;stroke-linejoin:round;}</style>
 </defs>
 <g id="figure_1">
  <g id="patch_1">
   <path d="M 0 568.8 
L 572.4 568.8 
L 572.4 0 
L 0 0 
z
" style="fill:none;"/>
  </g>
  <g id="axes_1">
   <g id="line2d_1">
    <path clip-path="url(#pf7902af352)" d="M -1 489.479388 
L 6.222523 488.682008 
L 13.204505 487.724536 
L 20.186486 486.547883 
L 27.168468 485.111383 
L 32.754054 483.744498 
L 38.33964 482.15627 
L 43.925225 480.318756 
L 49.510811 478.201978 
L 53.7 476.412011 
L 57.889189 474.432957 
L 62.078378 472.250227 
L 66.267568 469.848816 
L 70.456757 467.213384 
L 74.645946 464.32836 
L 78.835135 461.17805 
L 83.024324 457.746767 
L 87.213514 454.018971 
L 91.402703 449.979427 
L 95.591892 445.613373 
L 99.781081 440.906703 
L 103.97027 435.846161 
L 108.159459 430.419544 
L 112.348649 424.615916 
L 116.537838 418.425827 
L 120.727027 411.841538 
L 124.916216 404.857243 
L 129.105405 397.469294 
L 133.294595 389.676424 
L 137.483784 381.479953 
L 141.672973 372.883995 
L 147.258559 360.813999 
L 152.844144 348.072347 
L 158.42973 334.695144 
L 164.015315 320.729469 
L 169.600901 306.233651 
L 176.582883 287.475541 
L 184.961261 264.244958 
L 198.925225 224.65263 
L 210.096396 193.234853 
L 217.078378 174.213564 
L 222.663964 159.552599 
L 228.24955 145.534219 
L 232.438739 135.523753 
L 236.627928 126.006971 
L 240.817117 117.038166 
L 245.006306 108.669469 
L 249.195495 100.950348 
L 251.988288 96.18816 
L 254.781081 91.748184 
L 257.573874 87.642497 
L 260.366667 83.882353 
L 263.159459 80.478125 
L 265.952252 77.439264 
L 268.745045 74.77425 
L 271.537838 72.490553 
L 274.330631 70.594603 
L 277.123423 69.091753 
L 279.916216 67.986261 
L 282.709009 67.281263 
L 285.501802 66.978762 
L 288.294595 67.07962 
L 291.087387 67.583548 
L 293.88018 68.489115 
L 296.672973 69.793748 
L 299.465766 71.493749 
L 302.258559 73.58431 
L 305.051351 76.059535 
L 307.844144 78.912471 
L 310.636937 82.135137 
L 313.42973 85.718563 
L 316.222523 89.652831 
L 319.015315 93.927122 
L 321.808108 98.529764 
L 324.600901 103.448284 
L 328.79009 111.389242 
L 332.979279 119.963613 
L 337.168468 129.120987 
L 341.357658 138.808455 
L 345.546847 148.971118 
L 351.132432 163.162939 
L 356.718018 177.963166 
L 363.7 197.110475 
L 373.474775 224.65263 
L 391.627928 275.941363 
L 400.006306 298.808264 
L 406.988288 317.152688 
L 412.573874 331.256809 
L 418.159459 344.78598 
L 423.745045 357.690327 
L 429.330631 369.931037 
L 433.51982 378.658734 
L 437.709009 386.988968 
L 441.898198 394.916652 
L 446.087387 402.439558 
L 450.276577 409.558112 
L 454.465766 416.275193 
L 458.654955 422.595913 
L 462.844144 428.52739 
L 467.033333 434.078532 
L 471.222523 439.259801 
L 475.411712 444.083004 
L 479.600901 448.561067 
L 483.79009 452.707836 
L 487.979279 456.537875 
L 492.168468 460.06628 
L 496.357658 463.308509 
L 500.546847 466.280216 
L 504.736036 468.997106 
L 508.925225 471.474806 
L 513.114414 473.728744 
L 517.303604 475.774047 
L 521.492793 477.625451 
L 527.078378 479.816957 
L 532.663964 481.721399 
L 538.24955 483.369248 
L 543.835135 484.788964 
L 549.420721 486.006913 
L 556.402703 487.282341 
L 563.384685 488.322927 
L 571.763063 489.314345 
L 573.4 489.479388 
L 573.4 489.479388 
" style="fill:none;stroke:#5e81ac;stroke-linecap:square;stroke-width:50;"/>
   </g>
  </g>
 </g>
 <defs>
  <clipPath id="pf7902af352">
   <rect height="554.4" width="558" x="7.2" y="7.2"/>
  </clipPath>
 </defs>
</svg>
